<?xml version="1.0" encoding="iso-8859-1"?>
<!-- Generator: Adobe Illustrator 16.0.0, SVG Export Plug-In . SVG Version: 6.00 Build 0)  -->
<!DOCTYPE svg PUBLIC "-//W3C//DTD SVG 1.1//EN" "http://www.w3.org/Graphics/SVG/1.1/DTD/svg11.dtd">
<svg version="1.1" id="Capa_1" xmlns="http://www.w3.org/2000/svg" xmlns:xlink="http://www.w3.org/1999/xlink" x="0px" y="0px"
	 width="98.25px" height="98.25px" viewBox="0 0 98.25 98.25" style="enable-background:new 0 0 98.25 98.25;" xml:space="preserve"
	>
<g>
	<g>
		<path d="M49.125,0C22.037,0,0,22.038,0,49.125S22.037,98.25,49.125,98.25S98.25,76.212,98.25,49.125S76.213,0,49.125,0z
			 M49.125,88.25C27.551,88.25,10,70.699,10,49.125S27.551,10,49.125,10S88.25,27.551,88.25,49.125S70.699,88.25,49.125,88.25z"/>
		<path d="M77.296,33.027L71.02,26.75c-0.442-0.442-1.227-0.442-1.668,0L39.67,56.432L28.898,45.661
			c-0.441-0.442-1.225-0.442-1.668,0l-6.276,6.276c-0.222,0.222-0.346,0.521-0.346,0.834c0,0.313,0.124,0.613,0.346,0.834
			l17.882,17.881c0.23,0.229,0.531,0.346,0.834,0.346c0.301,0,0.604-0.115,0.834-0.346l36.792-36.792
			c0.222-0.221,0.347-0.521,0.347-0.834S77.518,33.248,77.296,33.027z"/>
	</g>
</g>
<g>
</g>
<g>
</g>
<g>
</g>
<g>
</g>
<g>
</g>
<g>
</g>
<g>
</g>
<g>
</g>
<g>
</g>
<g>
</g>
<g>
</g>
<g>
</g>
<g>
</g>
<g>
</g>
<g>
</g>
</svg>
